# xmcd
#
# Track frame offsets:
#	150
#	13260
#	28209
#	38181
#	50661
#	67836
#	83853
#	97792
#	112548
#	134056
#	148336
#	164019
#	174155
#	197999
#	212186
#	229410
#	241166
#	257981
#	272353
#
# Disc length: 3826 seconds
#
# Revision: 1
# Processed by: cddbd v1.5.2PL0 Copyright (c) Steve Scherf et al.
# Submitted via: audiograbber 1.83.01
#
DISCID=130ef013
DTITLE=Various Artist - Hope Srreet Christmas 20109
DYEAR=1900
DGENRE=
TTITLE0=Del Way - It's Christmas Time Again
TTITLE1=Susie Luchsinger - New Kid In Town
TTITLE2=Daniel Marion Hobbs - Wintertime Again
TTITLE3=Gary R. Smith - Christmas In The Country
TTITLE4=Keith Caldwell - Little Lamb
TTITLE5=Carma Grimes - Merry Christmas From Colorado
TTITLE6=Allen Karl - It's Not Christmas
TTITLE7=Billy Hale - Arch Top Guitar
TTITLE8=Desert Reign - Christmas With Him
TTITLE9=Miki Farington - Christmas Is A Time Of Giving
TTITLE10=Allen Karl - Christmas In My Heart
TTITLE11=Benny Greenlee - Come On Ring Those Bells
TTITLE12=Rick Bell - The Little Compass
TTITLE13=Sharon Joyner - Feliz Navidad
TTITLE14=Allen Karl - Christmas Wishes
TTITLE15=David Nall - Santa Claus Isw Coming To Town
TTITLE16=Ken Byford - Beneath The Talmadge Bridge
TTITLE17=Kris Miller - Truth's Thunder
TTITLE18=Allen Karl - The Gift
EXTD=
EXTT0=
EXTT1=
EXTT2=
EXTT3=
EXTT4=
EXTT5=
EXTT6=
EXTT7=
EXTT8=
EXTT9=
EXTT10=
EXTT11=
EXTT12=
EXTT13=
EXTT14=
EXTT15=
EXTT16=
EXTT17=
EXTT18=
PLAYORDER=
